ffmpeg version 3.4.8-0ubuntu0.2 Copyright (c) 2000-2020 the FFmpeg developers
  built with gcc 7 (Ubuntu 7.5.0-3ubuntu1~18.04)
  configuration: --prefix=/usr --extra-version=0ubuntu0.2 --toolchain=hardened --libdir=/usr/lib/x86_64-linux-gnu --incdir=/usr/include/x86_64-linux-gnu --enable-gpl --disable-stripping --enable-avresample --enable-avisynth --enable-gnutls --enable-ladspa --enable-libass --enable-libbluray --enable-libbs2b --enable-libcaca --enable-libcdio --enable-libflite --enable-libfontconfig --enable-libfreetype --enable-libfribidi --enable-libgme --enable-libgsm --enable-libmp3lame --enable-libmysofa --enable-libopenjpeg --enable-libopenmpt --enable-libopus --enable-libpulse --enable-librubberband --enable-librsvg --enable-libshine --enable-libsnappy --enable-libsoxr --enable-libspeex --enable-libssh --enable-libtheora --enable-libtwolame --enable-libvorbis --enable-libvpx --enable-libwavpack --enable-libwebp --enable-libx265 --enable-libxml2 --enable-libxvid --enable-libzmq --enable-libzvbi --enable-omx --enable-openal --enable-opengl --enable-sdl2 --enable-libdc1394 --enable-libdrm --enable-libiec61883 --enable-chromaprint --enable-frei0r --enable-libopencv --enable-libx264 --enable-shared
  libavutil      55. 78.100 / 55. 78.100
  libavcodec     57.107.100 / 57.107.100
  libavformat    57. 83.100 / 57. 83.100
  libavdevice    57. 10.100 / 57. 10.100
  libavfilter     6.107.100 /  6.107.100
  libavresample   3.  7.  0 /  3.  7.  0
  libswscale      4.  8.100 /  4.  8.100
  libswresample   2.  9.100 /  2.  9.100
  libpostproc    54.  7.100 / 54.  7.100
Input #0, yuv4mpegpipe, from '../.././Samples/Netflix_Boat_4096x2160_60fps_10bit_420.y4m':
  Duration: 00:00:05.00, start: 0.000000, bitrate: 12740201 kb/s
    Stream #0:0: Video: rawvideo (Y3[11][10] / 0xA0B3359), yuv420p10le(progressive), 4096x2160, SAR 1:1 DAR 256:135, 60 fps, 60 tbr, 60 tbn, 60 tbc
Stream mapping:
  Stream #0:0 -> #0:0 (rawvideo (native) -> h264 (libx264))
Press [q] to stop, [?] for help
[libx264 @ 0x555f42f0c240] using SAR=1/1
[libx264 @ 0x555f42f0c240] using cpu capabilities: MMX2 SSE2Fast SSSE3 SSE4.2 AVX FMA3 BMI2 AVX2
[libx264 @ 0x555f42f0c240] profile High, level 5.2
[libx264 @ 0x555f42f0c240] 264 - core 152 r2854 e9a5903 - H.264/MPEG-4 AVC codec - Copyleft 2003-2017 - http://www.videolan.org/x264.html - options: cabac=1 ref=3 deblock=1:0:0 analyse=0x3:0x113 me=hex subme=7 psy=1 psy_rd=1.00:0.00 mixed_ref=1 me_range=16 chroma_me=1 trellis=1 8x8dct=1 cqm=0 deadzone=21,11 fast_pskip=1 chroma_qp_offset=-2 threads=6 lookahead_threads=1 sliced_threads=0 nr=0 decimate=1 interlaced=0 bluray_compat=0 constrained_intra=0 bframes=3 b_pyramid=2 b_adapt=1 b_bias=0 direct=1 weightb=1 open_gop=0 weightp=2 keyint=250 keyint_min=25 scenecut=40 intra_refresh=0 rc_lookahead=40 rc=crf mbtree=1 crf=23.0 qcomp=0.60 qpmin=0 qpmax=69 qpstep=4 ip_ratio=1.40 aq=1:1.00
Output #0, mov, to '/home/aleksandr/Pract/Samples/Netflix_Boat_4096x2160_60fps_10bit_420.y4m_tc/output3.mov':
  Metadata:
    encoder         : Lavf57.83.100
    Stream #0:0: Video: h264 (libx264) (avc1 / 0x31637661), yuv420p, 4096x2160 [SAR 1:1 DAR 256:135], q=-1--1, 60 fps, 15360 tbn, 60 tbc
    Metadata:
      encoder         : Lavc57.107.100 libx264
    Side data:
      cpb: bitrate max/min/avg: 0/0/0 buffer size: 0 vbv_delay: -1
frame=    5 fps=0.0 q=0.0 size=       0kB time=00:00:00.00 bitrate=N/A speed=   0x    frame=    8 fps=5.9 q=0.0 size=       0kB time=00:00:00.00 bitrate=N/A speed=   0x    frame=   11 fps=5.5 q=0.0 size=       0kB time=00:00:00.00 bitrate=N/A speed=   0x    frame=   14 fps=5.1 q=0.0 size=       0kB time=00:00:00.00 bitrate=N/A speed=   0x    frame=   16 fps=4.9 q=0.0 size=       0kB time=00:00:00.00 bitrate=N/A speed=   0x    frame=   19 fps=4.8 q=0.0 size=       0kB time=00:00:00.00 bitrate=N/A speed=   0x    frame=   22 fps=4.8 q=0.0 size=       0kB time=00:00:00.00 bitrate=N/A speed=   0x    frame=   25 fps=4.7 q=0.0 size=       0kB time=00:00:00.00 bitrate=N/A speed=   0x    frame=   28 fps=4.7 q=0.0 size=       0kB time=00:00:00.00 bitrate=N/A speed=   0x    frame=   31 fps=4.7 q=0.0 size=       0kB time=00:00:00.00 bitrate=N/A speed=   0x    frame=   32 fps=4.5 q=0.0 size=       0kB time=00:00:00.00 bitrate=N/A speed=   0x    frame=   35 fps=4.5 q=0.0 size=       0kB time=00:00:00.00 bitrate=N/A speed=   0x    frame=   37 fps=4.2 q=0.0 size=       0kB time=00:00:00.00 bitrate=N/A speed=   0x    frame=   40 fps=4.2 q=0.0 size=       0kB time=00:00:00.00 bitrate=N/A speed=   0x    frame=   43 fps=4.2 q=0.0 size=       0kB time=00:00:00.00 bitrate=N/A speed=   0x    frame=   46 fps=4.2 q=0.0 size=       0kB time=00:00:00.00 bitrate=N/A speed=   0x    frame=   47 fps=3.8 q=0.0 size=       0kB time=00:00:00.00 bitrate=N/A speed=   0x    frame=   48 fps=3.4 q=0.0 size=       0kB time=00:00:00.00 bitrate=N/A speed=   0x    frame=   51 fps=3.4 q=31.0 size=     512kB time=-00:00:00.03 bitrate=N/A speed=N/A    frame=   54 fps=3.5 q=31.0 size=     768kB time=00:00:00.01 bitrate=376030.6kbits/s speed=0.00108x    frame=   57 fps=3.5 q=31.0 size=    1024kB time=00:00:00.06 bitrate=125710.2kbits/s speed=0.00414x    frame=   60 fps=3.6 q=31.0 size=    1280kB time=00:00:00.11 bitrate=89830.1kbits/s speed=0.00699x    frame=   63 fps=3.6 q=31.0 size=    1280kB time=00:00:00.16 bitrate=62891.6kbits/s speed=0.00964x    frame=   66 fps=3.7 q=31.0 size=    1536kB time=00:00:00.21 bitrate=58058.8kbits/s speed=0.0121x    frame=   69 fps=3.7 q=31.0 size=    1792kB time=00:00:00.26 bitrate=55037.8kbits/s speed=0.0144x    frame=   72 fps=3.8 q=31.0 size=    2048kB time=00:00:00.31 bitrate=52970.7kbits/s speed=0.0166x    frame=   75 fps=3.8 q=31.0 size=    2048kB time=00:00:00.36 bitrate=45748.7kbits/s speed=0.0186x    frame=   78 fps=3.8 q=31.0 size=    2304kB time=00:00:00.41 bitrate=45292.1kbits/s speed=0.0205x    frame=   81 fps=3.9 q=31.0 size=    2560kB time=00:00:00.46 bitrate=44933.3kbits/s speed=0.0223x    frame=   84 fps=3.9 q=31.0 size=    2816kB time=00:00:00.51 bitrate=44644.0kbits/s speed=0.024x    frame=   87 fps=3.9 q=31.0 size=    2816kB time=00:00:00.56 bitrate=40705.2kbits/s speed=0.0255x    frame=   90 fps=3.9 q=31.0 size=    3072kB time=00:00:00.61 bitrate=40805.6kbits/s speed=0.027x    frame=   93 fps=4.0 q=31.0 size=    3328kB time=00:00:00.66 bitrate=40890.9kbits/s speed=0.0285x    frame=   96 fps=4.0 q=31.0 size=    3584kB time=00:00:00.71 bitrate=40964.3kbits/s speed=0.0298x    frame=   99 fps=4.0 q=31.0 size=    3584kB time=00:00:00.76 bitrate=38292.9kbits/s speed=0.031x    frame=  102 fps=4.0 q=31.0 size=    3840kB time=00:00:00.81 bitrate=38516.4kbits/s speed=0.0323x    frame=  105 fps=4.1 q=31.0 size=    4096kB time=00:00:00.86 bitrate=38714.1kbits/s speed=0.0334x    frame=  108 fps=4.1 q=31.0 size=    4352kB time=00:00:00.91 bitrate=38890.2kbits/s speed=0.0346x    frame=  111 fps=4.1 q=31.0 size=    4352kB time=00:00:00.96 bitrate=36878.8kbits/s speed=0.0357x    frame=  114 fps=4.1 q=31.0 size=    4608kB time=00:00:01.01 bitrate=37127.8kbits/s speed=0.0367x    frame=  117 fps=4.1 q=31.0 size=    4864kB time=00:00:01.06 bitrate=37353.5kbits/s speed=0.0377x    frame=  120 fps=4.2 q=31.0 size=    5120kB time=00:00:01.11 bitrate=37559.0kbits/s speed=0.0387x    frame=  123 fps=4.2 q=31.0 size=    5120kB time=00:00:01.16 bitrate=35949.4kbits/s speed=0.0396x    frame=  126 fps=4.2 q=31.0 size=    5376kB time=00:00:01.21 bitrate=36195.7kbits/s speed=0.0405x    frame=  129 fps=4.2 q=31.0 size=    5632kB time=00:00:01.26 bitrate=36422.6kbits/s speed=0.0413x    frame=  132 fps=4.2 q=31.0 size=    5888kB time=00:00:01.31 bitrate=36632.2kbits/s speed=0.0421x    frame=  135 fps=4.2 q=31.0 size=    5888kB time=00:00:01.36 bitrate=35292.1kbits/s speed=0.0429x    frame=  138 fps=4.2 q=31.0 size=    6144kB time=00:00:01.41 bitrate=35526.8kbits/s speed=0.0436x    frame=  141 fps=4.3 q=31.0 size=    6400kB time=00:00:01.46 bitrate=35745.5kbits/s speed=0.0444x    frame=  144 fps=4.3 q=31.0 size=    6656kB time=00:00:01.51 bitrate=35949.8kbits/s speed=0.0451x    frame=  147 fps=4.3 q=31.0 size=    6656kB time=00:00:01.56 bitrate=34802.5kbits/s speed=0.0457x    frame=  150 fps=4.3 q=31.0 size=    6912kB time=00:00:01.61 bitrate=35023.4kbits/s speed=0.0464x    frame=  153 fps=4.3 q=31.0 size=    7168kB time=00:00:01.66 bitrate=35230.9kbits/s speed=0.047x    frame=  156 fps=4.3 q=31.0 size=    7424kB time=00:00:01.71 bitrate=35426.4kbits/s speed=0.0476x    frame=  159 fps=4.3 q=31.0 size=    7424kB time=00:00:01.76 bitrate=34423.8kbits/s speed=0.0482x    frame=  162 fps=4.3 q=31.0 size=    7680kB time=00:00:01.81 bitrate=34630.8kbits/s speed=0.0487x    frame=  165 fps=4.4 q=31.0 size=    7936kB time=00:00:01.86 bitrate=34826.6kbits/s speed=0.0493x    frame=  168 fps=4.4 q=31.0 size=    8192kB time=00:00:01.91 bitrate=35012.3kbits/s speed=0.0498x    frame=  171 fps=4.4 q=31.0 size=    8448kB time=00:00:01.96 bitrate=35188.5kbits/s speed=0.0503x    frame=  174 fps=4.4 q=31.0 size=    8704kB time=00:00:02.01 bitrate=35355.9kbits/s speed=0.0507x    frame=  177 fps=4.4 q=31.0 size=    8960kB time=00:00:02.06 bitrate=35515.3kbits/s speed=0.0512x    frame=  180 fps=4.4 q=31.0 size=    9216kB time=00:00:02.11 bitrate=35667.1kbits/s speed=0.0516x    frame=  183 fps=4.4 q=31.0 size=    9216kB time=00:00:02.16 bitrate=34844.1kbits/s speed=0.052x    frame=  186 fps=4.4 q=31.0 size=    9472kB time=00:00:02.21 bitrate=35004.2kbits/s speed=0.0525x    frame=  189 fps=4.4 q=31.0 size=    9728kB time=00:00:02.26 bitrate=35157.3kbits/s speed=0.0529x    frame=  192 fps=4.4 q=31.0 size=    9984kB time=00:00:02.31 bitrate=35303.7kbits/s speed=0.0533x    frame=  195 fps=4.4 q=31.0 size=    9984kB time=00:00:02.36 bitrate=34557.9kbits/s speed=0.0537x    frame=  198 fps=4.4 q=31.0 size=   10240kB time=00:00:02.41 bitrate=34710.7kbits/s speed=0.054x    frame=  201 fps=4.4 q=31.0 size=   10496kB time=00:00:02.46 bitrate=34857.3kbits/s speed=0.0543x    frame=  204 fps=4.4 q=31.0 size=   10752kB time=00:00:02.51 bitrate=34998.0kbits/s speed=0.0547x    frame=  206 fps=4.4 q=31.0 size=   11008kB time=00:00:02.55 bitrate=35363.0kbits/s speed=0.0548x    frame=  209 fps=4.4 q=31.0 size=   11264kB time=00:00:02.60 bitrate=35489.5kbits/s speed=0.0551x    frame=  212 fps=4.4 q=31.0 size=   11520kB time=00:00:02.65 bitrate=35611.3kbits/s speed=0.0555x    frame=  215 fps=4.4 q=31.0 size=   11520kB time=00:00:02.70 bitrate=34951.8kbits/s speed=0.0558x    frame=  218 fps=4.5 q=31.0 size=   11776kB time=00:00:02.75 bitrate=35078.9kbits/s speed=0.0562x    frame=  221 fps=4.5 q=31.0 size=   12032kB time=00:00:02.80 bitrate=35201.5kbits/s speed=0.0564x    frame=  224 fps=4.5 q=31.0 size=   12288kB time=00:00:02.85 bitrate=35319.8kbits/s speed=0.0567x    frame=  227 fps=4.5 q=31.0 size=   12288kB time=00:00:02.90 bitrate=34710.8kbits/s speed=0.057x    frame=  230 fps=4.5 q=31.0 size=   12544kB time=00:00:02.95 bitrate=34833.4kbits/s speed=0.0572x    frame=  233 fps=4.5 q=31.0 size=   12800kB time=00:00:03.00 bitrate=34951.9kbits/s speed=0.0574x    frame=  236 fps=4.5 q=31.0 size=   13056kB time=00:00:03.05 bitrate=35066.5kbits/s speed=0.0577x    frame=  238 fps=4.4 q=31.0 size=   13312kB time=00:00:03.08 bitrate=35367.5kbits/s speed=0.0572x    frame=  240 fps=4.4 q=31.0 size=   13568kB time=00:00:03.11 bitrate=35662.1kbits/s speed=0.0573x    frame=  243 fps=4.4 q=31.0 size=   13568kB time=00:00:03.16 bitrate=35099.1kbits/s speed=0.0575x    frame=  246 fps=4.4 q=31.0 size=   13824kB time=00:00:03.21 bitrate=35205.4kbits/s speed=0.0578x    frame=  249 fps=4.4 q=31.0 size=   14080kB time=00:00:03.26 bitrate=35308.6kbits/s speed=0.0581x    frame=  252 fps=4.4 q=31.0 size=   14336kB time=00:00:03.31 bitrate=35408.6kbits/s speed=0.0584x    frame=  255 fps=4.4 q=31.0 size=   14336kB time=00:00:03.36 bitrate=34882.7kbits/s speed=0.0586x    frame=  258 fps=4.4 q=31.0 size=   14592kB time=00:00:03.41 bitrate=34986.0kbits/s speed=0.0588x    frame=  261 fps=4.4 q=31.0 size=   15104kB time=00:00:03.46 bitrate=35691.3kbits/s speed=0.059x    frame=  264 fps=4.4 q=31.0 size=   15104kB time=00:00:03.51 bitrate=35183.9kbits/s speed=0.0592x    frame=  267 fps=4.4 q=31.0 size=   15360kB time=00:00:03.56 bitrate=35278.6kbits/s speed=0.0594x    frame=  270 fps=4.5 q=31.0 size=   15616kB time=00:00:03.61 bitrate=35370.8kbits/s speed=0.0596x    frame=  273 fps=4.5 q=31.0 size=   15872kB time=00:00:03.66 bitrate=35460.4kbits/s speed=0.0598x    frame=  276 fps=4.5 q=31.0 size=   16128kB time=00:00:03.71 bitrate=35547.6kbits/s speed=0.06x    frame=  279 fps=4.5 q=31.0 size=   16128kB time=00:00:03.76 bitrate=35075.7kbits/s speed=0.0602x    frame=  282 fps=4.5 q=31.0 size=   16384kB time=00:00:03.81 bitrate=35165.7kbits/s speed=0.0604x    frame=  285 fps=4.5 q=31.0 size=   16640kB time=00:00:03.86 bitrate=35253.3kbits/s speed=0.0605x    frame=  288 fps=4.5 q=31.0 size=   16896kB time=00:00:03.91 bitrate=35338.7kbits/s speed=0.0606x    frame=  291 fps=4.5 q=31.0 size=   17152kB time=00:00:03.96 bitrate=35422.0kbits/s speed=0.0609x    frame=  294 fps=4.5 q=31.0 size=   17408kB time=00:00:04.01 bitrate=35503.1kbits/s speed=0.061x    frame=  296 fps=4.4 q=29.0 size=   17664kB time=00:00:04.05 bitrate=35728.8kbits/s speed=0.0603x    frame=  298 fps=4.4 q=31.0 size=   17664kB time=00:00:04.08 bitrate=35437.1kbits/s speed=0.0603x    frame=  300 fps=4.4 q=31.0 size=   17664kB time=00:00:04.11 bitrate=35150.2kbits/s speed=0.0602x    frame=  300 fps=4.0 q=-1.0 Lsize=   21998kB time=00:00:04.95 bitrate=36404.9kbits/s speed=0.0654x    
video:21993kB audio:0kB subtitle:0kB other streams:0kB global headers:0kB muxing overhead: 0.020780%
[libx264 @ 0x555f42f0c240] frame I:2     Avg QP:24.68  size:795160
[libx264 @ 0x555f42f0c240] frame P:76    Avg QP:26.68  size:189801
[libx264 @ 0x555f42f0c240] frame B:222   Avg QP:31.81  size: 29303
[libx264 @ 0x555f42f0c240] consecutive B-frames:  1.3%  0.0%  0.0% 98.7%
[libx264 @ 0x555f42f0c240] mb I  I16..4:  9.2% 73.0% 17.8%
[libx264 @ 0x555f42f0c240] mb P  I16..4:  0.3%  1.8%  0.4%  P16..4: 35.3% 18.8% 11.8%  0.0%  0.0%    skip:31.7%
[libx264 @ 0x555f42f0c240] mb B  I16..4:  0.0%  0.0%  0.0%  B16..8: 31.5%  2.0%  0.8%  direct: 1.9%  skip:63.9%  L0:37.4% L1:55.2% BI: 7.4%
[libx264 @ 0x555f42f0c240] 8x8 transform intra:73.5% inter:74.1%
[libx264 @ 0x555f42f0c240] coded y,uvDC,uvAC intra: 83.0% 83.1% 55.6% inter: 11.4% 8.7% 0.7%
[libx264 @ 0x555f42f0c240] i16 v,h,dc,p: 63% 20% 13%  5%
[libx264 @ 0x555f42f0c240] i8 v,h,dc,ddl,ddr,vr,hd,vl,hu: 11% 11% 12% 12%  9%  9%  9% 13% 15%
[libx264 @ 0x555f42f0c240] i4 v,h,dc,ddl,ddr,vr,hd,vl,hu: 15% 13% 11% 11% 11% 10%  9% 11% 10%
[libx264 @ 0x555f42f0c240] i8c dc,h,v,p: 62% 16% 14%  8%
[libx264 @ 0x555f42f0c240] Weighted P-Frames: Y:0.0% UV:0.0%
[libx264 @ 0x555f42f0c240] ref P L0: 64.5% 21.7%  8.9%  4.8%
[libx264 @ 0x555f42f0c240] ref B L0: 96.0%  2.8%  1.1%
[libx264 @ 0x555f42f0c240] ref B L1: 99.1%  0.9%
[libx264 @ 0x555f42f0c240] kb/s:36032.68
	Command being timed: "/usr/bin/ffmpeg -i ../.././Samples/Netflix_Boat_4096x2160_60fps_10bit_420.y4m -c:v libx264 -f mov /home/aleksandr/Pract/Samples/Netflix_Boat_4096x2160_60fps_10bit_420.y4m_tc/output3.mov"
	User time (seconds): 186.39
	System time (seconds): 5.38
	Percent of CPU this job got: 251%
	Elapsed (wall clock) time (h:mm:ss or m:ss): 1:16.36
	Average shared text size (kbytes): 0
	Average unshared data size (kbytes): 0
	Average stack size (kbytes): 0
	Average total size (kbytes): 0
	Maximum resident set size (kbytes): 1976384
	Average resident set size (kbytes): 0
	Major (requiring I/O) page faults: 39
	Minor (reclaiming a frame) page faults: 196488
	Voluntary context switches: 26402
	Involuntary context switches: 9180
	Swaps: 0
	File system inputs: 15360888
	File system outputs: 44064
	Socket messages sent: 0
	Socket messages received: 0
	Signals delivered: 0
	Page size (bytes): 4096
	Exit status: 0
